<svg xmlns="http://www.w3.org/2000/svg" width="24" height="24" viewBox="0 0 24 24" fill="none"><path fill="#FFFFFF" fill-rule="evenodd" clip-rule="evenodd" d="M19.0569 6.27006C15.1546 2.30156 8.84535 2.30156 4.94312 6.27006C1.01896 10.2608 1.01896 16.7372 4.94312 20.7279L3.51718 22.1301C-1.17239 17.3609 -1.17239 9.63705 3.51718 4.86786C8.2093 0.0960452 15.7907 0.0960452 20.4828 4.86786C25.1724 9.63705 25.1724 17.3609 20.4828 22.1301L19.0569 20.7279C22.981 16.7372 22.981 10.2608 19.0569 6.27006ZM15 14C15 15.6569 13.6569 17 12 17C10.3431 17 9 15.6569 9 14C9 12.3431 10.3431 11 12 11C12.4398 11 12.8574 11.0946 13.2339 11.2647L16.7929 7.70575L18.2071 9.11996L14.6481 12.6789C14.8746 13.0948 15 13.5326 15 14Z"/></svg>
